<svg width="356" height="171" viewBox="0 0 356 171" fill="none" xmlns="http://www.w3.org/2000/svg">
  <g filter="url(#filter0_d)">
    <path d="M40.5488 78V20.56H50.3888V69.04H60.5488V78H40.5488ZM63.4394 20.56H73.4394V78H63.4394V20.56ZM102.3 41.2L98.3 78H90.7L86.78 41.2H86.62L86.7 52.56V78H77.58V20.56H90.94L94.46 55.92H94.62L98.14 20.56H111.42V78H102.3V52.56L102.46 41.2H102.3ZM115.549 20.56H125.549V78H115.549V20.56ZM152.969 20.56V29.52H145.689V78H135.689V29.52H128.409V20.56H152.969ZM155.861 78V20.56H175.861V29.52H165.701V43.84H174.501V52.72H165.701V69.04H175.861V78H155.861ZM179.455 20.56H192.575C196.362 20.56 199.348 21.6 201.535 23.68C203.722 25.7067 204.815 28.48 204.815 32V66.56C204.815 70.08 203.722 72.88 201.535 74.96C199.348 76.9867 196.362 78 192.575 78H179.455V20.56ZM192.095 29.2H189.455V69.36H192.095C192.948 69.36 193.615 69.0933 194.095 68.56C194.575 67.9733 194.815 67.1467 194.815 66.08V32.48C194.815 31.4133 194.575 30.6133 194.095 30.08C193.615 29.4933 192.948 29.2 192.095 29.2ZM241.016 20.56V29.52H233.736V78H223.736V29.52H216.456V20.56H241.016ZM243.908 20.56H253.908V78H243.908V20.56ZM282.769 41.2L278.769 78H271.169L267.249 41.2H267.089L267.169 52.56V78H258.049V20.56H271.409L274.929 55.92H275.089L278.609 20.56H291.889V78H282.769V52.56L282.929 41.2H282.769ZM296.018 78V20.56H316.018V29.52H305.858V43.84H314.658V52.72H305.858V69.04H316.018V78H296.018ZM49.0391 133.04V142H24.1591V133.6L37.7591 107.52C38.3457 106.133 38.7191 105.093 38.8791 104.4C39.0391 103.707 39.1191 102.933 39.1191 102.08V96C39.1191 94.88 38.9057 94.0267 38.4791 93.44C38.0524 92.8 37.4124 92.48 36.5591 92.48C35.7057 92.48 35.0391 92.8 34.5591 93.44C34.1324 94.0267 33.9191 94.88 33.9191 96V106.16H24.2391V95.36C24.2391 91.8933 25.3591 89.12 27.5991 87.04C29.8924 84.96 32.9591 83.92 36.7991 83.92C40.5857 83.92 43.5724 84.9333 45.7591 86.96C47.9991 88.9867 49.1191 91.7067 49.1191 95.12V102.24C49.1191 103.84 48.8791 105.413 48.3991 106.96C47.9191 108.453 46.8524 110.613 45.1991 113.44L35.4391 133.04H49.0391ZM64.7072 123.28H49.0272V113.76H64.7072V123.28ZM68.9472 142V84.56H88.9472V93.52H78.9472V107.84H87.5872V116.72H78.9472V142H68.9472ZM103.767 83.92C107.607 83.92 110.674 84.96 112.967 87.04C115.261 89.12 116.407 91.8933 116.407 95.36V131.2C116.407 134.667 115.261 137.44 112.967 139.52C110.674 141.6 107.607 142.64 103.767 142.64C99.9272 142.64 96.8339 141.6 94.4872 139.52C92.1939 137.44 91.0472 134.667 91.0472 131.2V95.36C91.0472 91.8933 92.1939 89.12 94.4872 87.04C96.8339 84.96 99.9272 83.92 103.767 83.92ZM103.767 92.48C102.914 92.48 102.247 92.8 101.767 93.44C101.287 94.0267 101.047 94.88 101.047 96V130.56C101.047 131.68 101.287 132.56 101.767 133.2C102.247 133.787 102.914 134.08 103.767 134.08C104.621 134.08 105.261 133.787 105.687 133.2C106.167 132.56 106.407 131.68 106.407 130.56V96C106.407 94.88 106.167 94.0267 105.687 93.44C105.261 92.8 104.621 92.48 103.767 92.48ZM132.197 117.2H130.197V142H120.197V84.56H133.957C137.744 84.56 140.624 85.4933 142.597 87.36C144.571 89.1733 145.557 91.84 145.557 95.36V105.28C145.557 107.093 145.131 108.667 144.277 110C143.424 111.333 142.197 112.293 140.597 112.88C142.197 113.52 143.397 114.533 144.197 115.92C145.051 117.253 145.477 118.88 145.477 120.8V134.4C145.477 136.267 145.531 137.813 145.637 139.04C145.797 140.267 146.037 141.253 146.357 142H136.437C136.117 141.253 135.877 140.32 135.717 139.2C135.557 138.027 135.477 136.507 135.477 134.64V121.04C135.477 119.707 135.211 118.747 134.677 118.16C134.144 117.52 133.317 117.2 132.197 117.2ZM135.557 105.36V96.48C135.557 95.4133 135.317 94.6133 134.837 94.08C134.357 93.4933 133.691 93.2 132.837 93.2H130.197V108.64H132.837C133.744 108.64 134.411 108.373 134.837 107.84C135.317 107.253 135.557 106.427 135.557 105.36ZM165.02 123.28H149.34V113.76H165.02V123.28ZM180.167 84.4V142H170.327V99.04H163.047V91.36C166.407 91.3067 168.807 90.7733 170.247 89.76C171.687 88.7467 172.62 86.96 173.047 84.4H180.167ZM205.798 83.92C209.638 83.92 212.705 84.96 214.998 87.04C217.292 89.12 218.438 91.8933 218.438 95.36V131.2C218.438 134.667 217.292 137.44 214.998 139.52C212.705 141.6 209.638 142.64 205.798 142.64C201.958 142.64 198.865 141.6 196.518 139.52C194.225 137.44 193.078 134.667 193.078 131.2V95.36C193.078 91.8933 194.225 89.12 196.518 87.04C198.865 84.96 201.958 83.92 205.798 83.92ZM205.798 92.48C204.945 92.48 204.278 92.8 203.798 93.44C203.318 94.0267 203.078 94.88 203.078 96V130.56C203.078 131.68 203.318 132.56 203.798 133.2C204.278 133.787 204.945 134.08 205.798 134.08C206.652 134.08 207.292 133.787 207.718 133.2C208.198 132.56 208.438 131.68 208.438 130.56V96C208.438 94.88 208.198 94.0267 207.718 93.44C207.292 92.8 206.652 92.48 205.798 92.48ZM222.228 142V84.56H242.228V93.52H232.228V107.84H240.868V116.72H232.228V142H222.228ZM245.432 142V84.56H265.432V93.52H255.432V107.84H264.072V116.72H255.432V142H245.432ZM268.635 142V84.56H288.635V93.52H278.475V107.84H287.275V116.72H278.475V133.04H288.635V142H268.635ZM304.228 117.2H302.228V142H292.228V84.56H305.988C309.775 84.56 312.655 85.4933 314.628 87.36C316.602 89.1733 317.588 91.84 317.588 95.36V105.28C317.588 107.093 317.162 108.667 316.308 110C315.455 111.333 314.228 112.293 312.628 112.88C314.228 113.52 315.428 114.533 316.228 115.92C317.082 117.253 317.508 118.88 317.508 120.8V134.4C317.508 136.267 317.562 137.813 317.668 139.04C317.828 140.267 318.068 141.253 318.388 142H308.468C308.148 141.253 307.908 140.32 307.748 139.2C307.588 138.027 307.508 136.507 307.508 134.64V121.04C307.508 119.707 307.242 118.747 306.708 118.16C306.175 117.52 305.348 117.2 304.228 117.2ZM307.588 105.36V96.48C307.588 95.4133 307.348 94.6133 306.868 94.08C306.388 93.4933 305.722 93.2 304.868 93.2H302.228V108.64H304.868C305.775 108.64 306.442 108.373 306.868 107.84C307.348 107.253 307.588 106.427 307.588 105.36ZM331.051 142H321.131V130.88H331.051V142Z" fill="white"/>
  </g>
  <defs>
    <filter id="filter0_d" x="0.15918" y="0.559937" width="354.892" height="170.08" filterUnits="userSpaceOnUse" color-interpolation-filters="sRGB">
      <feFlood flood-opacity="0" result="BackgroundImageFix"/>
      <feColorMatrix in="SourceAlpha" type="matrix" values="0 0 0 0 0 0 0 0 0 0 0 0 0 0 0 0 0 0 127 0" result="hardAlpha"/>
      <feOffset dy="4"/>
      <feGaussianBlur stdDeviation="12"/>
      <feColorMatrix type="matrix" values="0 0 0 0 0 0 0 0 0 0 0 0 0 0 0 0 0 0 0.3 0"/>
      <feBlend mode="normal" in2="BackgroundImageFix" result="effect1_dropShadow"/>
      <feBlend mode="normal" in="SourceGraphic" in2="effect1_dropShadow" result="shape"/>
    </filter>
  </defs>
</svg>
